# xmcd
#
# Track frame offsets:
#   150
#   13158
#   28146
#   43062
#   58838
#   72729
#   85893
#   98340
#   110109
#   125474
#   139442
#   153592
#   167280
#   183616
#   196565
#   214202
#   235129
#   245104
#
# Disc length: 3468 seconds
#
# Revision: 0
# Processed by: cddbd v1.5.2PL0 Copyright (c) Steve Scherf et al.
# Submitted via: GXTranscoder 2.0.1939
#
DISCID=090d8a12
DTITLE=Verschiedene - Country Musik 04
DYEAR=2004
DGENRE=Country
TTITLE0=Dolly Parton and Loretta Lynn - Honky Tonk
TTITLE1=Faith Hill - Take Me As i Am
TTITLE2=Gunter Gabriel - deutschland ist
TTITLE3=John Prine and Johnny Cash - You Are My Sunshine
TTITLE4=Lee Ann Womack - After I Fall
TTITLE5=Kenny Rogers - Ruby Don't Take Your Love
TTITLE6=Johnny Cash - I Walk The Line
TTITLE7=Skeeter Davis - My Last Date
TTITLE8=Johnny Cash - The Night Hank Williams Came To Town
TTITLE9=Waylon Jennings and Johnny Cash - Even Cowgirls Get 
TTITLE10=Loretta Lynn - she's Got You
TTITLE11=Johnny Cash 6 Willie Nelson - Highwayman
TTITLE12=Johnny Logan - Hold Me Now
TTITLE13=Loretta Lynn - Hey Loretta
TTITLE14=Kenny Rogers - Lady
TTITLE15=Willie Nelson, Johnny Cash u.a. - Desperado's Wait
TTITLE16=Patsy Cline - Blue Moon Of Kentucky
TTITLE17=Johnny Logan - Whats Another Year
EXTD=
EXTT0=
EXTT1=
EXTT2=
EXTT3=
EXTT4=
EXTT5=
EXTT6=
EXTT7=
EXTT8=
EXTT9=
EXTT10=
EXTT11=
EXTT12=
EXTT13=
EXTT14=
EXTT15=
EXTT16=
EXTT17=
PLAYORDER=
